<svg id="Capa_1" data-name="Capa 1" xmlns="http://www.w3.org/2000/svg" viewBox="0 0 59.67 22.5"><defs><style>.cls-1{fill:#fff;}.cls-2{fill:#fff;}</style></defs><title>logo</title><path class="cls-1" d="M27.48,16,15.23,3.77a1.71,1.71,0,0,0-2.46,0L.52,16a1.71,1.71,0,0,0,0,2.46A1.68,1.68,0,0,0,1.75,19h24.5a1.74,1.74,0,0,0,1.23-3Z" transform="translate(0 -3.25)"/><path class="cls-2" d="M32.19,13,44.44,25.23a1.71,1.71,0,0,0,2.46,0L59.15,13a1.75,1.75,0,0,0-1.23-3H33.42a1.74,1.74,0,0,0-1.23,3Z" transform="translate(0 -3.25)"/></svg>